<svg id="svg" version="1.1" xmlns="http://www.w3.org/2000/svg" xmlns:xlink="http://www.w3.org/1999/xlink" width="400" height="341.0852713178295" viewBox="0, 0, 400,341.0852713178295"><g id="svgg"><path id="path0" d="M138.396 53.594 C 104.537 53.790,104.863 53.772,103.032 55.595 C 102.243 56.382,100.683 59.267,100.683 59.941 C 100.683 60.079,99.856 61.277,98.847 62.604 C 97.837 63.931,96.613 65.866,96.128 66.903 C 95.642 67.940,94.895 69.164,94.467 69.623 C 93.256 70.924,92.448 72.242,90.482 76.126 C 89.408 78.248,87.960 80.489,86.955 81.586 C 86.017 82.610,84.793 84.445,84.236 85.666 C 82.661 89.114,82.251 89.808,80.698 91.653 C 76.296 96.881,76.364 102.977,80.884 108.345 C 81.824 109.462,82.594 110.643,82.594 110.970 C 82.594 111.296,82.736 111.651,82.909 111.759 C 83.082 111.866,83.326 112.417,83.450 112.983 C 84.173 116.275,86.175 119.686,89.648 123.543 C 91.152 125.213,91.859 126.207,92.812 127.986 C 93.265 128.831,93.977 129.983,94.396 130.546 C 94.814 131.109,95.701 132.491,96.366 133.618 C 97.031 134.744,98.050 136.203,98.630 136.860 C 99.607 137.965,101.375 141.349,102.910 145.051 C 103.260 145.896,103.811 146.976,104.134 147.453 C 104.871 148.539,106.485 152.046,106.485 152.560 C 106.485 153.265,108.235 156.782,109.195 158.007 C 109.716 158.671,110.738 160.328,111.467 161.689 C 112.223 163.101,113.015 164.164,113.313 164.164 C 113.814 164.164,116.041 161.140,116.041 160.459 C 116.041 160.276,116.687 159.537,117.476 158.817 C 120.835 155.755,121.725 154.413,124.340 148.464 C 124.723 147.594,126.460 145.287,127.916 143.716 C 128.361 143.236,129.109 142.032,129.578 141.039 C 130.048 140.046,130.775 138.815,131.194 138.303 C 132.394 136.837,133.316 135.129,133.929 133.237 C 134.273 132.177,135.095 130.838,136.020 129.831 C 137.026 128.735,137.844 127.356,138.428 125.775 C 139.630 122.515,140.261 121.265,141.158 120.369 C 141.904 119.623,143.686 116.101,143.686 115.374 C 143.686 114.341,145.567 109.844,146.891 107.711 C 147.718 106.380,148.625 104.731,148.908 104.048 C 149.191 103.365,149.945 102.213,150.584 101.488 C 151.223 100.764,152.398 98.849,153.195 97.233 C 153.992 95.618,155.415 93.391,156.358 92.285 C 157.300 91.178,158.472 89.582,158.961 88.737 C 159.912 87.094,162.496 83.218,162.829 82.935 C 162.939 82.841,163.591 81.920,164.278 80.887 C 164.965 79.855,165.663 78.844,165.830 78.640 C 165.996 78.437,166.243 77.769,166.377 77.155 C 166.746 75.478,168.241 72.345,169.352 70.922 C 169.894 70.227,171.112 68.154,172.060 66.314 C 173.007 64.474,174.303 62.179,174.941 61.212 C 177.324 57.598,177.230 55.603,174.614 54.321 C 172.681 53.374,173.548 53.391,138.396 53.594 M285.784 171.075 C 285.212 171.685,284.530 172.505,284.267 172.896 C 284.004 173.287,283.121 174.368,282.305 175.297 C 281.355 176.380,280.449 177.963,279.784 179.705 C 279.212 181.200,278.317 183.067,277.793 183.855 C 276.655 185.565,275.588 187.908,275.254 189.430 C 274.900 191.039,273.451 193.784,271.953 195.679 C 271.236 196.588,270.648 197.509,270.646 197.727 C 270.645 197.945,270.432 198.530,270.172 199.028 C 269.912 199.527,269.528 200.448,269.318 201.076 C 269.108 201.704,268.235 202.978,267.379 203.907 C 266.522 204.835,265.222 206.796,264.490 208.263 C 263.757 209.731,262.760 211.352,262.273 211.865 C 261.787 212.379,261.147 213.259,260.852 213.823 C 260.556 214.386,260.210 214.923,260.083 215.017 C 259.956 215.111,259.333 216.109,258.698 217.235 C 258.062 218.362,257.057 219.974,256.463 220.819 C 255.092 222.770,252.780 227.257,251.891 229.693 C 251.514 230.725,250.661 232.184,249.995 232.935 C 249.329 233.686,248.226 235.452,247.544 236.860 C 246.863 238.268,245.507 240.495,244.531 241.809 C 243.556 243.123,242.477 244.966,242.134 245.904 C 241.792 246.843,241.025 248.385,240.430 249.331 C 239.005 251.600,238.432 252.843,237.237 256.264 C 236.544 258.247,235.799 259.621,234.790 260.776 C 233.234 262.558,232.845 263.258,231.738 266.275 C 231.211 267.709,230.493 268.730,228.984 270.190 C 227.861 271.276,226.465 273.014,225.882 274.052 C 225.298 275.089,224.460 276.370,224.019 276.898 C 222.635 278.554,224.402 281.436,227.304 282.253 C 229.099 282.759,292.059 282.710,294.132 282.201 C 297.421 281.393,300.406 278.389,303.236 273.038 C 303.782 272.005,304.600 270.776,305.054 270.307 C 305.815 269.520,308.191 264.935,308.191 264.253 C 308.191 264.089,309.060 262.901,310.123 261.613 C 311.556 259.876,312.128 258.867,312.340 257.707 C 313.073 253.677,314.130 250.458,315.014 249.560 C 316.226 248.329,317.259 246.781,317.569 245.734 C 317.945 244.460,320.045 241.192,321.416 239.747 C 321.651 239.500,321.843 239.211,321.843 239.104 C 321.843 238.997,322.304 237.934,322.867 236.743 C 323.430 235.551,323.891 234.356,323.891 234.087 C 323.891 233.819,324.130 233.258,324.422 232.840 C 324.845 232.237,324.859 232.082,324.492 232.082 C 323.147 232.082,318.235 225.417,317.755 222.942 C 317.385 221.031,316.415 218.961,314.869 216.777 C 314.249 215.903,313.334 214.113,312.835 212.799 C 311.611 209.574,311.111 208.622,309.581 206.601 C 308.864 205.653,308.084 204.292,307.847 203.576 C 307.231 201.708,305.976 199.643,304.534 198.121 C 304.306 197.880,303.858 197.014,303.540 196.196 C 303.222 195.379,302.134 193.466,301.123 191.947 C 300.112 190.427,298.906 188.046,298.442 186.656 C 297.284 183.186,296.665 182.026,294.870 179.965 C 294.020 178.988,292.714 176.992,291.969 175.530 C 289.492 170.667,287.506 169.237,285.784 171.075 " stroke="none" fill="#e68f32" fill-rule="evenodd"></path><path id="path1" d="M75.852 104.988 C 75.670 105.342,75.412 106.087,75.278 106.643 C 75.145 107.199,74.571 108.658,74.003 109.885 C 73.435 111.112,72.852 112.423,72.707 112.799 C 72.010 114.602,70.121 118.430,69.928 118.430 C 69.808 118.430,69.613 118.916,69.494 119.509 C 69.371 120.124,68.710 121.129,67.957 121.846 C 66.589 123.146,65.971 124.261,65.065 127.065 C 64.483 128.863,62.765 131.256,61.846 131.547 C 61.525 131.649,61.078 132.157,60.853 132.675 C 60.628 133.194,60.118 134.384,59.721 135.321 C 59.324 136.257,58.110 138.023,57.024 139.245 C 55.938 140.468,54.631 142.389,54.119 143.515 C 52.878 146.248,51.868 148.182,51.355 148.805 C 51.123 149.087,50.839 149.625,50.724 150.000 C 50.608 150.375,49.960 151.285,49.283 152.020 C 48.606 152.756,47.843 153.949,47.588 154.672 C 46.578 157.535,45.957 158.417,44.025 159.728 C 41.646 161.344,41.637 161.381,41.643 168.729 C 41.648 175.256,41.726 175.658,43.039 175.946 C 44.593 176.288,45.938 177.930,47.072 180.869 C 47.646 182.359,48.732 184.457,49.484 185.531 C 50.237 186.606,50.853 187.603,50.853 187.748 C 50.853 188.169,51.491 189.507,52.219 190.614 C 52.590 191.177,53.164 192.170,53.494 192.819 C 53.825 193.469,54.556 194.489,55.119 195.087 C 56.431 196.478,57.338 197.576,57.338 197.774 C 57.338 197.859,57.790 198.642,58.343 199.513 C 58.895 200.384,59.447 201.550,59.569 202.104 C 59.711 202.751,60.369 203.561,61.412 204.371 C 63.301 205.838,64.271 207.368,65.192 210.328 C 65.661 211.837,66.297 212.931,67.374 214.082 C 68.562 215.351,68.988 216.134,69.324 217.665 C 69.560 218.743,69.860 219.701,69.991 219.795 C 70.121 219.889,70.573 220.734,70.994 221.672 C 71.415 222.611,72.256 224.454,72.861 225.768 C 74.085 228.423,74.592 229.761,74.885 231.111 C 74.994 231.609,75.928 232.897,76.961 233.972 C 77.994 235.048,78.840 236.142,78.840 236.404 C 78.840 237.286,80.819 240.775,82.100 242.150 C 83.672 243.838,84.485 245.245,84.994 247.159 C 85.437 248.820,86.164 249.866,88.724 252.522 C 90.310 254.168,91.637 256.427,92.302 258.613 C 92.679 259.852,94.093 262.217,95.195 263.451 C 95.758 264.082,96.695 265.585,97.277 266.790 C 97.858 267.996,98.593 269.269,98.911 269.620 C 100.587 271.473,101.979 274.022,102.254 275.743 C 102.991 280.350,102.002 280.239,141.297 280.124 C 173.713 280.029,172.467 280.093,174.120 278.440 L 174.809 277.750 173.958 276.845 C 172.745 275.554,171.073 272.803,170.628 271.364 C 169.924 269.088,169.217 267.839,168.057 266.821 C 167.381 266.227,166.731 265.220,166.488 264.388 C 166.261 263.608,165.974 262.892,165.851 262.799 C 165.728 262.705,165.084 261.630,164.420 260.410 C 163.641 258.977,162.566 257.658,161.385 256.684 C 159.192 254.878,158.542 253.879,157.786 251.161 C 157.424 249.859,156.761 248.576,155.983 247.674 C 153.538 244.837,152.632 243.486,152.079 241.854 C 151.345 239.687,150.939 238.920,149.978 237.884 C 149.542 237.415,148.507 235.700,147.677 234.073 C 146.352 231.473,145.560 230.198,144.404 228.802 C 143.560 227.783,142.693 225.493,142.175 222.912 C 141.619 220.144,140.979 218.680,140.101 218.166 C 139.668 217.912,139.466 217.552,136.621 211.945 C 135.020 208.789,134.346 207.614,133.072 205.751 C 132.732 205.254,132.362 204.481,132.250 204.034 C 132.137 203.588,131.516 202.661,130.869 201.975 C 130.222 201.289,129.693 200.639,129.693 200.531 C 129.693 200.422,129.092 199.452,128.358 198.375 C 127.623 197.298,126.818 195.956,126.567 195.392 C 126.317 194.829,124.921 193.205,123.465 191.784 C 122.010 190.362,120.818 188.980,120.817 188.712 C 120.816 188.444,120.600 187.813,120.337 187.310 C 120.075 186.806,119.761 185.944,119.640 185.393 C 119.519 184.843,119.159 184.103,118.840 183.749 C 116.639 181.308,115.595 179.371,114.265 175.267 C 113.716 173.571,112.998 171.877,112.669 171.502 C 111.453 170.113,111.018 169.059,110.778 166.919 C 110.643 165.713,110.258 164.177,109.922 163.506 C 109.587 162.836,109.215 161.885,109.098 161.394 C 108.980 160.902,108.377 159.750,107.757 158.834 C 107.137 157.917,106.185 156.015,105.640 154.608 C 105.095 153.200,104.505 151.854,104.328 151.617 C 103.751 150.846,102.769 149.026,101.523 146.416 C 100.850 145.009,100.158 143.626,99.985 143.345 C 99.811 143.063,99.459 142.369,99.202 141.803 C 98.946 141.236,98.137 140.073,97.405 139.217 C 94.878 136.262,93.865 134.982,93.861 134.736 C 93.855 134.364,91.774 129.890,91.516 129.693 C 91.394 129.599,90.845 128.908,90.296 128.157 C 89.006 126.389,88.529 125.848,86.772 124.156 C 85.901 123.318,85.152 122.198,84.902 121.361 C 84.504 120.026,83.498 117.925,82.028 115.358 C 81.652 114.701,81.057 113.396,80.706 112.457 C 80.356 111.519,79.801 110.367,79.473 109.898 C 79.144 109.428,78.270 107.987,77.529 106.694 C 76.365 104.662,76.138 104.431,75.852 104.988 " stroke="none" fill="#4f90ea" fill-rule="evenodd"></path><path id="path2" d="M229.863 55.266 C 228.676 55.552,227.370 56.196,226.578 56.885 C 225.355 57.948,227.076 61.566,230.231 64.568 C 231.714 65.980,232.097 66.628,232.894 69.076 C 233.625 71.322,234.204 72.375,235.598 73.986 C 237.193 75.831,237.525 76.514,238.889 80.766 C 239.857 83.787,240.659 85.699,241.107 86.061 C 241.493 86.372,242.184 87.370,242.643 88.279 C 243.102 89.188,244.131 90.715,244.929 91.672 C 246.397 93.432,248.123 96.357,248.123 97.086 C 248.123 97.304,248.430 98.118,248.805 98.896 C 249.181 99.673,249.488 100.431,249.488 100.581 C 249.488 100.731,250.019 101.277,250.668 101.795 C 251.317 102.312,252.159 103.387,252.539 104.184 C 254.113 107.479,257.217 113.050,258.956 115.700 C 259.963 117.234,260.180 117.569,261.504 119.625 C 262.108 120.563,262.685 121.408,262.786 121.502 C 263.489 122.156,264.717 124.327,265.736 126.715 C 266.405 128.284,267.497 130.124,268.211 130.887 C 269.582 132.351,270.004 133.092,270.830 135.491 C 271.121 136.333,272.056 137.911,272.909 138.996 C 274.390 140.882,275.707 143.666,276.490 146.567 C 276.690 147.307,277.351 148.536,277.959 149.298 C 279.088 150.712,280.546 153.791,280.546 154.761 C 280.546 155.262,281.038 156.309,281.668 157.150 C 284.796 161.324,286.171 163.991,286.533 166.588 C 286.823 168.663,287.300 169.553,289.078 171.331 C 289.923 172.176,291.224 174.064,291.969 175.528 C 292.714 176.992,294.020 178.988,294.870 179.965 C 296.665 182.026,297.284 183.186,298.442 186.656 C 298.906 188.046,300.112 190.427,301.123 191.947 C 302.134 193.466,303.213 195.357,303.520 196.147 C 304.020 197.432,304.507 198.187,305.642 199.441 C 306.291 200.158,307.414 202.262,307.847 203.576 C 308.084 204.292,308.864 205.653,309.581 206.601 C 311.111 208.622,311.611 209.574,312.835 212.799 C 313.334 214.113,314.249 215.903,314.869 216.777 C 316.415 218.961,317.385 221.031,317.755 222.942 C 318.327 225.891,323.177 232.082,324.916 232.082 C 326.190 232.082,327.612 231.339,327.857 230.546 C 327.973 230.171,328.373 229.172,328.746 228.328 C 329.119 227.483,329.656 226.254,329.941 225.597 C 331.237 222.604,332.528 220.137,332.797 220.137 C 333.227 220.137,334.321 217.855,334.983 215.578 C 335.312 214.447,336.368 212.418,337.446 210.844 C 338.484 209.328,339.645 207.381,340.027 206.518 C 340.408 205.655,341.295 204.258,341.998 203.413 C 342.700 202.568,343.762 200.649,344.357 199.149 C 344.952 197.648,345.851 195.883,346.354 195.225 C 348.338 192.635,348.917 191.554,350.023 188.377 C 350.655 186.562,351.714 184.253,352.378 183.246 C 353.041 182.239,353.584 181.281,353.584 181.117 C 353.584 180.822,354.039 179.745,355.412 176.792 C 358.173 170.853,358.352 167.449,356.187 162.037 C 355.318 159.866,354.608 157.868,354.608 157.599 C 354.608 157.330,354.509 157.011,354.388 156.891 C 354.267 156.770,353.818 155.810,353.390 154.757 C 352.962 153.704,352.229 152.280,351.761 151.592 C 351.292 150.904,350.716 149.650,350.480 148.805 C 350.244 147.961,349.938 147.116,349.800 146.928 C 349.662 146.741,349.441 146.009,349.309 145.303 C 349.177 144.597,348.931 143.935,348.763 143.830 C 348.594 143.726,347.882 142.780,347.180 141.729 C 346.479 140.677,345.791 139.650,345.653 139.447 C 345.227 138.822,343.686 135.218,343.686 134.847 C 343.686 134.655,342.995 133.649,342.150 132.612 C 341.305 131.575,340.613 130.609,340.612 130.466 C 340.609 130.120,337.397 125.080,336.085 123.362 C 335.753 122.927,335.093 121.371,334.619 119.903 C 334.145 118.436,333.296 116.586,332.733 115.792 C 332.170 114.999,331.396 113.616,331.014 112.721 C 328.593 107.045,326.916 104.440,325.085 103.511 C 323.461 102.687,322.579 101.714,321.621 99.689 C 321.130 98.652,320.148 97.030,319.439 96.086 C 318.284 94.549,317.017 92.073,315.713 88.809 C 315.466 88.191,314.994 87.496,314.663 87.265 C 313.739 86.618,312.748 84.670,312.286 82.594 C 312.056 81.561,311.679 80.410,311.447 80.034 C 311.215 79.659,310.826 78.737,310.584 77.986 C 310.341 77.235,309.722 76.084,309.207 75.427 C 308.243 74.195,307.328 72.327,306.345 69.586 C 306.035 68.719,305.279 67.491,304.665 66.855 C 303.483 65.632,300.683 61.438,300.683 60.892 C 300.683 59.630,296.989 56.338,294.710 55.570 C 292.902 54.960,232.308 54.676,229.863 55.266 " stroke="none" fill="#19a15e" fill-rule="evenodd"></path><path id="path3" d="M0.000 170.648 L 0.000 341.297 200.000 341.297 L 400.000 341.297 400.000 170.648 L 400.000 0.000 200.000 0.000 L 0.000 0.000 0.000 170.648 M292.189 50.511 C 293.200 50.698,294.334 50.993,294.710 51.167 C 295.085 51.341,295.791 51.569,296.279 51.673 C 297.685 51.976,302.389 56.224,302.389 57.192 C 302.389 57.460,302.512 57.679,302.663 57.679 C 302.814 57.679,303.220 58.485,303.567 59.471 C 304.114 61.029,305.518 63.148,306.952 64.582 C 307.191 64.822,307.670 65.759,308.016 66.666 C 308.363 67.572,309.048 68.877,309.540 69.566 C 312.077 73.119,313.281 75.427,313.646 77.441 C 314.047 79.655,315.072 82.376,315.634 82.724 C 315.817 82.837,316.448 83.891,317.035 85.066 C 317.623 86.240,318.870 88.353,319.806 89.761 C 321.469 92.262,323.233 95.623,323.712 97.208 C 323.844 97.643,324.360 98.258,324.860 98.575 C 329.553 101.551,331.074 103.181,331.920 106.143 C 332.345 107.633,333.513 110.030,334.347 111.123 C 334.791 111.705,335.154 112.303,335.154 112.452 C 335.154 112.602,335.461 113.393,335.836 114.212 C 336.489 115.634,336.937 116.629,338.533 120.203 C 338.927 121.084,339.249 122.037,339.249 122.319 C 339.249 122.602,339.448 122.956,339.692 123.106 C 340.285 123.472,341.447 125.518,341.983 127.144 C 342.223 127.870,343.049 129.090,343.820 129.855 C 344.641 130.669,345.884 132.590,346.821 134.490 C 347.700 136.274,348.882 138.315,349.447 139.027 C 350.012 139.738,350.655 140.885,350.876 141.576 C 351.096 142.267,351.412 142.979,351.577 143.157 C 351.742 143.335,351.877 143.729,351.877 144.031 C 351.877 144.334,352.146 144.887,352.474 145.260 C 353.154 146.032,353.675 146.885,354.957 149.317 C 355.451 150.256,356.249 151.715,356.729 152.560 C 357.210 153.404,357.798 154.748,358.036 155.546 C 358.275 156.344,358.576 156.997,358.707 156.997 C 358.903 156.997,360.076 159.416,361.438 162.628 C 362.642 165.469,362.758 169.803,361.687 171.950 C 361.391 172.544,361.040 173.531,360.908 174.143 C 360.628 175.439,359.566 177.635,358.656 178.800 C 358.307 179.248,358.020 179.823,358.020 180.079 C 358.020 180.521,356.072 184.729,355.194 186.182 C 353.765 188.546,353.029 189.661,352.553 190.179 C 352.256 190.503,351.656 191.809,351.220 193.080 C 350.785 194.352,349.992 195.891,349.458 196.500 C 348.924 197.109,347.765 199.106,346.882 200.937 C 345.843 203.093,344.773 204.747,343.848 205.631 C 342.827 206.607,342.201 207.630,341.654 209.215 C 341.233 210.435,340.534 211.971,340.100 212.628 C 339.117 214.116,337.884 216.450,337.884 216.823 C 337.884 216.976,337.563 217.823,337.171 218.705 C 334.976 223.642,334.341 224.915,334.075 224.915 C 333.656 224.915,332.213 228.237,331.925 229.863 C 331.380 232.941,330.672 233.476,325.368 234.821 C 323.731 235.236,321.843 237.518,321.843 239.081 C 321.843 239.200,321.651 239.500,321.416 239.747 C 320.045 241.192,317.945 244.460,317.569 245.734 C 317.259 246.781,316.226 248.329,315.014 249.560 C 314.130 250.458,313.073 253.677,312.340 257.707 C 312.128 258.867,311.556 259.876,310.123 261.613 C 309.060 262.901,308.191 264.089,308.191 264.253 C 308.191 264.935,305.815 269.520,305.054 270.307 C 304.600 270.776,303.782 272.005,303.236 273.038 C 300.406 278.389,297.421 281.393,294.132 282.201 C 292.059 282.710,229.099 282.759,227.304 282.253 C 224.402 281.436,222.635 278.554,224.019 276.898 C 224.460 276.370,225.298 275.089,225.882 274.052 C 226.465 273.014,227.861 271.276,228.984 270.190 C 230.493 268.730,231.211 267.709,231.738 266.275 C 232.845 263.258,233.234 262.558,234.790 260.776 C 235.799 259.621,236.544 258.247,237.237 256.264 C 238.432 252.843,239.005 251.600,240.430 249.331 C 241.025 248.385,241.792 246.843,242.134 245.904 C 242.477 244.966,243.556 243.123,244.531 241.809 C 245.507 240.495,246.863 238.268,247.544 236.860 C 248.226 235.452,249.329 233.686,249.995 232.935 C 250.661 232.184,251.514 230.725,251.891 229.693 C 252.780 227.257,255.092 222.770,256.463 220.819 C 257.057 219.974,258.062 218.362,258.698 217.235 C 259.333 216.109,259.956 215.111,260.083 215.017 C 260.210 214.923,260.556 214.386,260.852 213.823 C 261.147 213.259,261.787 212.379,262.273 211.865 C 262.760 211.352,263.757 209.731,264.490 208.263 C 265.222 206.796,266.522 204.835,267.379 203.907 C 268.235 202.978,269.108 201.704,269.318 201.076 C 269.528 200.448,269.912 199.527,270.172 199.028 C 270.432 198.530,270.645 197.945,270.646 197.727 C 270.648 197.509,271.236 196.588,271.953 195.679 C 273.451 193.784,274.900 191.039,275.254 189.430 C 275.588 187.908,276.655 185.565,277.793 183.855 C 278.317 183.067,279.205 181.219,279.768 179.746 C 280.330 178.274,281.069 176.738,281.409 176.333 C 281.749 175.928,282.631 174.906,283.368 174.061 C 284.529 172.731,284.683 172.366,284.519 171.331 C 284.415 170.674,284.179 169.160,283.995 167.966 C 283.810 166.773,283.410 165.544,283.106 165.236 C 282.053 164.170,279.983 161.181,279.618 160.200 C 279.417 159.658,278.908 158.140,278.488 156.826 C 278.068 155.512,277.291 153.940,276.762 153.334 C 275.876 152.319,274.619 149.921,272.687 145.563 C 272.271 144.625,271.354 142.858,270.648 141.638 C 269.943 140.418,269.258 138.919,269.126 138.308 C 268.994 137.696,268.163 136.391,267.278 135.407 C 265.331 133.241,263.481 130.715,263.481 130.220 C 263.481 129.332,261.505 126.280,259.760 124.472 C 258.709 123.384,257.438 121.700,256.935 120.731 C 256.432 119.762,255.857 118.733,255.657 118.444 C 255.458 118.155,254.800 117.150,254.196 116.212 C 253.591 115.273,253.005 114.428,252.892 114.334 C 252.661 114.141,251.362 110.849,251.007 109.556 C 250.570 107.961,249.093 104.980,248.141 103.768 C 247.618 103.103,246.697 101.561,246.094 100.341 C 245.491 99.121,244.854 97.892,244.681 97.611 C 244.507 97.329,244.107 96.600,243.791 95.990 C 243.476 95.380,243.088 94.881,242.929 94.881 C 242.769 94.881,242.091 93.694,241.421 92.243 C 240.751 90.792,239.914 89.403,239.561 89.156 C 238.017 88.074,236.450 85.048,235.103 80.546 C 234.907 79.889,234.415 78.816,234.011 78.162 C 233.607 77.507,233.123 76.722,232.935 76.416 C 232.747 76.111,232.226 75.187,231.777 74.364 C 230.770 72.519,227.727 67.980,226.902 67.093 C 226.568 66.734,225.869 65.812,225.349 65.046 C 224.830 64.279,224.317 63.575,224.211 63.481 C 224.104 63.387,223.533 62.466,222.942 61.433 C 222.351 60.401,221.399 59.063,220.827 58.461 C 219.605 57.175,219.774 55.235,221.362 52.290 C 221.865 51.358,225.609 50.753,232.253 50.530 C 243.834 50.142,290.115 50.127,292.189 50.511 M173.838 53.222 C 176.491 53.838,178.061 56.608,177.011 58.820 C 176.703 59.470,176.451 60.147,176.451 60.327 C 176.451 60.506,175.928 61.337,175.290 62.173 C 174.651 63.009,173.285 65.324,172.254 67.316 C 171.223 69.309,169.924 71.527,169.368 72.245 C 168.410 73.480,167.468 75.609,166.525 78.669 C 166.293 79.420,165.821 80.456,165.475 80.973 C 165.129 81.489,164.534 82.373,164.153 82.936 C 163.531 83.856,162.541 85.341,161.342 87.155 C 160.953 87.742,160.018 88.999,158.385 91.126 C 158.025 91.596,157.247 92.517,156.657 93.174 C 156.067 93.831,154.820 95.879,153.886 97.724 C 152.902 99.669,151.632 101.609,150.864 102.339 C 150.136 103.032,149.430 104.056,149.295 104.615 C 149.052 105.624,147.521 108.547,147.064 108.874 C 146.713 109.125,145.051 112.849,145.051 113.383 C 145.051 113.635,144.843 114.144,144.588 114.515 C 144.333 114.885,144.025 115.728,143.904 116.388 C 143.623 117.928,142.538 119.945,141.067 121.663 C 140.402 122.441,139.682 123.824,139.380 124.906 C 138.573 127.801,137.985 128.878,136.402 130.362 C 135.280 131.413,134.801 132.218,134.317 133.867 C 133.516 136.595,133.088 137.435,131.747 138.908 C 131.149 139.565,130.262 140.947,129.775 141.980 C 129.288 143.012,128.072 144.945,127.073 146.276 C 126.073 147.607,125.256 148.793,125.256 148.911 C 125.256 149.103,124.766 150.232,122.933 154.266 C 122.634 154.923,121.346 156.469,120.069 157.702 C 118.792 158.935,117.747 160.057,117.747 160.195 C 117.747 160.334,117.410 161.168,116.997 162.049 C 114.726 166.894,116.190 173.338,120.506 177.500 C 122.743 179.656,124.440 182.444,125.083 185.017 C 125.205 185.505,126.138 186.999,127.158 188.337 C 128.177 189.675,129.486 191.807,130.067 193.075 C 130.648 194.343,131.569 195.807,132.114 196.327 C 133.177 197.343,134.069 199.097,134.980 201.962 C 135.293 202.948,135.672 203.754,135.822 203.754 C 136.478 203.754,138.940 207.558,139.798 209.898 C 140.347 211.395,141.271 213.071,142.024 213.937 C 142.732 214.750,143.492 215.979,143.714 216.667 C 143.935 217.355,144.231 218.072,144.372 218.259 C 144.512 218.447,145.136 220.060,145.758 221.843 C 146.379 223.626,147.398 225.930,148.022 226.962 C 148.646 227.995,149.305 229.377,149.486 230.034 C 149.668 230.691,150.516 231.978,151.372 232.893 C 152.228 233.808,153.158 235.037,153.439 235.623 C 155.013 238.905,156.453 241.286,157.691 242.655 C 158.458 243.504,160.045 245.503,161.216 247.099 C 162.387 248.695,163.979 250.832,164.754 251.849 C 166.090 253.605,167.577 256.919,167.577 258.145 C 167.577 259.009,168.953 261.839,169.850 262.817 C 170.289 263.297,171.568 265.486,172.691 267.682 C 173.815 269.878,175.287 272.479,175.963 273.461 C 179.486 278.583,178.155 284.452,173.312 285.146 C 168.679 285.811,108.026 285.157,106.826 284.430 C 106.169 284.031,105.171 283.599,104.608 283.468 C 103.107 283.120,100.325 280.052,99.008 277.292 C 98.384 275.985,97.599 274.608,97.263 274.232 C 96.927 273.857,96.153 272.474,95.544 271.160 C 94.759 269.469,93.902 268.289,92.607 267.120 C 91.601 266.212,90.365 264.753,89.859 263.878 C 89.354 263.003,88.844 262.210,88.726 262.116 C 88.607 262.022,88.224 261.139,87.874 260.154 C 87.524 259.168,87.124 258.362,86.986 258.362 C 86.848 258.362,86.642 258.069,86.529 257.710 C 86.415 257.352,85.856 256.546,85.287 255.919 C 84.718 255.291,83.799 253.780,83.243 252.560 C 81.801 249.389,80.579 247.156,79.321 245.392 C 78.719 244.548,77.992 243.062,77.706 242.092 C 77.018 239.758,76.563 238.944,75.250 237.695 C 74.095 236.596,72.016 232.971,72.014 232.053 C 72.014 231.756,71.398 230.634,70.646 229.559 C 68.851 226.998,68.062 225.390,67.780 223.720 C 67.461 221.836,66.902 220.432,66.149 219.625 C 65.336 218.752,63.823 216.439,63.823 216.068 C 63.823 215.911,63.574 215.577,63.271 215.326 C 62.968 215.074,62.223 213.829,61.616 212.558 C 61.009 211.287,59.963 209.593,59.292 208.793 C 56.201 205.109,55.597 204.289,54.997 202.958 C 54.645 202.176,53.704 200.845,52.906 200.000 C 51.054 198.037,50.085 196.500,49.374 194.394 C 49.062 193.469,48.277 191.934,47.630 190.981 C 46.984 190.029,46.038 188.174,45.528 186.860 C 45.018 185.546,43.803 183.242,42.828 181.741 C 40.134 177.590,40.101 177.427,40.112 168.259 C 40.121 160.467,40.500 156.997,41.341 156.997 C 41.505 156.997,41.638 156.783,41.638 156.523 C 41.638 156.262,42.176 155.268,42.833 154.313 C 43.490 153.358,44.027 152.419,44.027 152.227 C 44.027 152.034,44.160 151.877,44.323 151.877 C 44.485 151.877,45.029 150.751,45.531 149.374 C 46.033 147.998,47.048 145.963,47.786 144.852 C 48.524 143.741,49.132 142.708,49.137 142.555 C 49.170 141.610,51.446 137.776,52.825 136.343 C 53.725 135.407,54.941 133.786,55.528 132.739 C 56.114 131.693,57.183 130.200,57.904 129.421 C 60.164 126.981,60.819 126.049,61.738 123.973 C 62.583 122.064,65.010 118.521,66.237 117.406 C 66.955 116.753,67.450 115.425,68.036 112.578 C 68.311 111.241,69.049 109.367,69.831 108.015 C 70.562 106.754,71.581 104.958,72.095 104.024 C 73.097 102.203,74.276 100.628,76.241 98.483 C 76.919 97.742,77.474 97.011,77.474 96.858 C 77.474 96.180,79.090 93.158,80.539 91.126 C 81.409 89.906,82.834 87.449,83.706 85.666 C 84.578 83.882,85.816 81.886,86.457 81.229 C 87.097 80.572,88.429 78.498,89.417 76.621 C 90.405 74.744,91.309 73.131,91.426 73.038 C 91.544 72.944,91.869 72.406,92.151 71.843 C 92.432 71.280,92.847 70.623,93.073 70.384 C 94.521 68.850,95.872 66.890,96.214 65.827 C 96.433 65.147,97.422 63.534,98.412 62.244 C 99.403 60.953,100.641 59.006,101.164 57.917 C 102.620 54.887,104.031 53.878,107.668 53.269 C 109.986 52.880,172.176 52.836,173.838 53.222 " stroke="none" fill="#fbfbfa" fill-rule="evenodd"></path><path id="path4" d="M232.253 50.530 C 225.609 50.753,221.865 51.358,221.362 52.290 C 219.774 55.235,219.605 57.175,220.827 58.461 C 221.399 59.063,222.351 60.401,222.942 61.433 C 223.533 62.466,224.104 63.387,224.211 63.481 C 224.317 63.575,224.830 64.279,225.349 65.046 C 225.869 65.812,226.568 66.734,226.902 67.093 C 227.727 67.980,230.770 72.519,231.777 74.364 C 232.226 75.187,232.747 76.111,232.935 76.416 C 233.123 76.722,233.607 77.507,234.011 78.162 C 234.415 78.816,234.907 79.889,235.103 80.546 C 236.450 85.048,238.017 88.074,239.561 89.156 C 239.914 89.403,240.751 90.792,241.421 92.243 C 242.091 93.694,242.769 94.881,242.929 94.881 C 243.088 94.881,243.476 95.380,243.791 95.990 C 244.107 96.600,244.507 97.329,244.681 97.611 C 244.854 97.892,245.491 99.121,246.094 100.341 C 246.697 101.561,247.618 103.103,248.141 103.768 C 249.093 104.980,250.570 107.961,251.007 109.556 C 251.362 110.849,252.661 114.141,252.892 114.334 C 253.005 114.428,253.591 115.273,254.196 116.212 C 254.800 117.150,255.458 118.155,255.657 118.444 C 255.857 118.733,256.432 119.762,256.935 120.731 C 257.438 121.700,258.709 123.384,259.760 124.472 C 261.505 126.280,263.481 129.332,263.481 130.220 C 263.481 130.715,265.331 133.241,267.278 135.407 C 268.163 136.391,268.994 137.696,269.126 138.308 C 269.258 138.919,269.943 140.418,270.648 141.638 C 271.354 142.858,272.271 144.625,272.687 145.563 C 274.619 149.921,275.876 152.319,276.762 153.334 C 277.291 153.940,278.068 155.512,278.488 156.826 C 278.908 158.140,279.417 159.658,279.618 160.200 C 279.983 161.181,282.053 164.170,283.106 165.236 C 283.410 165.544,283.801 166.772,283.976 167.966 C 284.150 169.160,284.410 170.548,284.553 171.051 L 284.812 171.966 286.129 170.757 C 287.257 169.721,287.396 169.443,287.094 168.818 C 286.901 168.417,286.648 167.413,286.533 166.588 C 286.171 163.991,284.796 161.324,281.668 157.150 C 281.038 156.309,280.546 155.262,280.546 154.761 C 280.546 153.791,279.088 150.712,277.959 149.298 C 277.351 148.536,276.690 147.307,276.490 146.567 C 275.707 143.666,274.390 140.882,272.909 138.996 C 272.056 137.911,271.121 136.333,270.830 135.491 C 270.004 133.092,269.582 132.351,268.211 130.887 C 267.497 130.124,266.405 128.284,265.736 126.715 C 264.717 124.327,263.489 122.156,262.786 121.502 C 262.685 121.408,262.108 120.563,261.504 119.625 C 260.180 117.569,259.963 117.234,258.956 115.700 C 257.217 113.050,254.113 107.479,252.539 104.184 C 252.159 103.387,251.317 102.312,250.668 101.795 C 250.019 101.277,249.488 100.731,249.488 100.581 C 249.488 100.431,249.181 99.673,248.805 98.896 C 248.430 98.118,248.123 97.304,248.123 97.086 C 248.123 96.357,246.397 93.432,244.929 91.672 C 244.131 90.715,243.102 89.188,242.643 88.279 C 242.184 87.370,241.493 86.372,241.107 86.061 C 240.659 85.699,239.857 83.787,238.889 80.766 C 237.525 76.514,237.193 75.831,235.598 73.986 C 234.204 72.375,233.625 71.322,232.894 69.076 C 232.097 66.628,231.714 65.980,230.231 64.568 C 227.075 61.565,225.357 57.950,226.578 56.882 C 228.701 55.025,226.799 55.128,261.046 55.026 C 296.839 54.919,295.433 54.824,297.977 57.509 C 299.577 59.196,300.683 60.603,300.683 60.952 C 300.683 61.450,303.550 65.701,304.665 66.855 C 305.279 67.491,306.035 68.719,306.345 69.586 C 307.328 72.327,308.243 74.195,309.207 75.427 C 309.722 76.084,310.341 77.235,310.584 77.986 C 310.826 78.737,311.215 79.659,311.447 80.034 C 311.679 80.410,312.056 81.561,312.286 82.594 C 312.748 84.670,313.739 86.618,314.663 87.265 C 314.994 87.496,315.466 88.191,315.713 88.809 C 317.017 92.073,318.284 94.549,319.439 96.086 C 320.148 97.030,321.130 98.652,321.621 99.689 C 322.579 101.714,323.461 102.687,325.085 103.511 C 326.916 104.440,328.593 107.045,331.014 112.721 C 331.396 113.616,332.170 114.999,332.733 115.792 C 333.296 116.586,334.145 118.436,334.619 119.903 C 335.093 121.371,335.753 122.927,336.085 123.362 C 337.397 125.080,340.609 130.120,340.612 130.466 C 340.613 130.609,341.305 131.575,342.150 132.612 C 342.995 133.649,343.686 134.655,343.686 134.847 C 343.686 135.218,345.227 138.822,345.653 139.447 C 345.791 139.650,346.479 140.677,347.180 141.729 C 347.882 142.780,348.594 143.726,348.763 143.830 C 348.931 143.935,349.177 144.597,349.309 145.303 C 349.441 146.009,349.662 146.741,349.800 146.928 C 349.938 147.116,350.244 147.961,350.480 148.805 C 350.716 149.650,351.292 150.904,351.761 151.592 C 352.229 152.280,352.962 153.704,353.390 154.757 C 353.818 155.810,354.267 156.770,354.388 156.891 C 354.509 157.011,354.608 157.330,354.608 157.599 C 354.608 157.868,355.318 159.866,356.187 162.037 C 358.352 167.449,358.173 170.853,355.412 176.792 C 354.039 179.745,353.584 180.822,353.584 181.117 C 353.584 181.281,353.041 182.239,352.378 183.246 C 351.714 184.253,350.655 186.562,350.023 188.377 C 348.917 191.554,348.338 192.635,346.354 195.225 C 345.851 195.883,344.952 197.648,344.357 199.149 C 343.762 200.649,342.700 202.568,341.998 203.413 C 341.295 204.258,340.408 205.655,340.027 206.518 C 339.645 207.381,338.484 209.328,337.446 210.844 C 336.368 212.418,335.312 214.447,334.983 215.578 C 334.321 217.855,333.227 220.137,332.797 220.137 C 332.528 220.137,331.237 222.604,329.941 225.597 C 329.656 226.254,329.119 227.483,328.746 228.328 C 328.373 229.172,327.974 230.171,327.860 230.546 C 327.746 230.922,327.152 231.431,326.540 231.678 C 324.625 232.449,324.413 232.629,324.012 233.821 C 323.468 235.441,323.825 235.436,329.252 233.745 C 330.530 233.346,331.577 231.826,331.925 229.863 C 332.213 228.237,333.656 224.915,334.075 224.915 C 334.341 224.915,334.976 223.642,337.171 218.705 C 337.563 217.823,337.884 216.976,337.884 216.823 C 337.884 216.450,339.117 214.116,340.100 212.628 C 340.534 211.971,341.233 210.435,341.654 209.215 C 342.201 207.630,342.827 206.607,343.848 205.631 C 344.773 204.747,345.843 203.093,346.882 200.937 C 347.765 199.106,348.924 197.109,349.458 196.500 C 349.992 195.891,350.785 194.352,351.220 193.080 C 351.656 191.809,352.256 190.503,352.553 190.179 C 353.029 189.661,353.765 188.546,355.194 186.182 C 356.072 184.729,358.020 180.521,358.020 180.079 C 358.020 179.823,358.307 179.248,358.656 178.800 C 359.566 177.635,360.628 175.439,360.908 174.143 C 361.040 173.531,361.391 172.544,361.687 171.950 C 362.758 169.803,362.642 165.469,361.438 162.628 C 360.076 159.416,358.903 156.997,358.707 156.997 C 358.576 156.997,358.275 156.344,358.036 155.546 C 357.798 154.748,357.210 153.404,356.729 152.560 C 356.249 151.715,355.451 150.256,354.957 149.317 C 353.675 146.885,353.154 146.032,352.474 145.260 C 352.146 144.887,351.877 144.334,351.877 144.031 C 351.877 143.729,351.742 143.335,351.577 143.157 C 351.412 142.979,351.096 142.267,350.876 141.576 C 350.655 140.885,350.012 139.738,349.447 139.027 C 348.882 138.315,347.700 136.274,346.821 134.490 C 345.884 132.590,344.641 130.669,343.820 129.855 C 343.049 129.090,342.223 127.870,341.983 127.144 C 341.447 125.518,340.285 123.472,339.692 123.106 C 339.448 122.956,339.249 122.602,339.249 122.319 C 339.249 122.037,338.927 121.084,338.533 120.203 C 336.937 116.629,336.489 115.634,335.836 114.212 C 335.461 113.393,335.154 112.602,335.154 112.452 C 335.154 112.303,334.791 111.705,334.347 111.123 C 333.513 110.030,332.345 107.633,331.920 106.143 C 331.074 103.181,329.553 101.551,324.860 98.575 C 324.360 98.258,323.844 97.643,323.712 97.208 C 323.233 95.623,321.469 92.262,319.806 89.761 C 318.870 88.353,317.623 86.240,317.035 85.066 C 316.448 83.891,315.817 82.837,315.634 82.724 C 315.072 82.376,314.047 79.655,313.646 77.441 C 313.281 75.427,312.077 73.119,309.540 69.566 C 309.048 68.877,308.363 67.572,308.016 66.666 C 307.670 65.759,307.191 64.822,306.952 64.582 C 305.518 63.148,304.114 61.029,303.567 59.471 C 303.220 58.485,302.814 57.679,302.663 57.679 C 302.512 57.679,302.389 57.460,302.389 57.192 C 302.389 56.224,297.685 51.976,296.279 51.673 C 295.791 51.569,295.085 51.341,294.710 51.167 C 294.334 50.993,293.200 50.698,292.189 50.511 C 290.115 50.127,243.834 50.142,232.253 50.530 M107.668 53.269 C 104.767 53.755,101.706 55.527,101.706 56.721 C 101.706 56.893,102.206 56.513,102.816 55.875 C 105.046 53.545,104.240 53.594,140.715 53.578 L 173.279 53.565 174.653 54.298 C 177.225 55.671,177.306 57.626,174.941 61.212 C 174.303 62.179,173.007 64.474,172.060 66.314 C 171.112 68.154,169.894 70.227,169.352 70.922 C 168.241 72.345,166.746 75.478,166.377 77.155 C 166.243 77.769,165.996 78.437,165.830 78.640 C 165.663 78.844,164.965 79.855,164.278 80.887 C 163.591 81.920,162.939 82.841,162.829 82.935 C 162.496 83.218,159.912 87.094,158.961 88.737 C 158.472 89.582,157.300 91.178,156.358 92.285 C 155.415 93.391,153.992 95.618,153.195 97.233 C 152.398 98.849,151.223 100.764,150.584 101.488 C 149.945 102.213,149.191 103.365,148.908 104.048 C 148.625 104.731,147.718 106.380,146.891 107.711 C 145.567 109.844,143.686 114.341,143.686 115.374 C 143.686 116.101,141.904 119.623,141.158 120.369 C 140.261 121.265,139.630 122.515,138.428 125.775 C 137.844 127.356,137.026 128.735,136.020 129.831 C 135.095 130.838,134.273 132.177,133.929 133.237 C 133.316 135.129,132.394 136.837,131.194 138.303 C 130.775 138.815,130.048 140.046,129.578 141.039 C 129.109 142.032,128.361 143.236,127.916 143.716 C 126.460 145.287,124.723 147.594,124.340 148.464 C 121.725 154.413,120.835 155.755,117.476 158.817 C 116.687 159.537,116.041 160.276,116.041 160.459 C 116.041 161.140,113.814 164.164,113.313 164.164 C 113.015 164.164,112.223 163.101,111.467 161.689 C 110.738 160.328,109.716 158.671,109.195 158.007 C 108.235 156.782,106.485 153.265,106.485 152.560 C 106.485 152.046,104.871 148.539,104.134 147.453 C 103.811 146.976,103.260 145.896,102.910 145.051 C 101.375 141.349,99.607 137.965,98.630 136.860 C 98.050 136.203,97.031 134.744,96.366 133.618 C 95.701 132.491,94.814 131.109,94.396 130.546 C 93.977 129.983,93.265 128.831,92.812 127.986 C 91.859 126.207,91.152 125.213,89.648 123.543 C 86.175 119.686,84.173 116.275,83.450 112.983 C 83.326 112.417,83.082 111.866,82.909 111.759 C 82.736 111.651,82.594 111.296,82.594 110.970 C 82.594 110.643,81.824 109.462,80.884 108.345 C 77.595 104.439,76.523 99.689,78.117 96.086 C 78.519 95.177,78.778 94.364,78.693 94.279 C 78.543 94.129,77.474 96.431,77.474 96.903 C 77.474 97.031,76.919 97.742,76.241 98.483 C 74.276 100.628,73.097 102.203,72.095 104.024 C 71.581 104.958,70.562 106.754,69.831 108.015 C 69.049 109.367,68.311 111.241,68.036 112.578 C 67.450 115.425,66.955 116.753,66.237 117.406 C 65.010 118.521,62.583 122.064,61.738 123.973 C 60.819 126.049,60.164 126.981,57.904 129.421 C 57.183 130.200,56.114 131.693,55.528 132.739 C 54.941 133.786,53.725 135.407,52.825 136.343 C 51.446 137.776,49.170 141.610,49.137 142.555 C 49.132 142.708,48.524 143.741,47.786 144.852 C 47.048 145.963,46.033 147.998,45.531 149.374 C 45.029 150.751,44.485 151.877,44.323 151.877 C 44.160 151.877,44.027 152.034,44.027 152.227 C 44.027 152.419,43.490 153.358,42.833 154.313 C 42.176 155.268,41.638 156.262,41.638 156.523 C 41.638 156.783,41.505 156.997,41.341 156.997 C 40.500 156.997,40.121 160.467,40.112 168.259 C 40.101 177.427,40.134 177.590,42.828 181.741 C 43.803 183.242,45.018 185.546,45.528 186.860 C 46.038 188.174,46.984 190.029,47.630 190.981 C 48.277 191.934,49.062 193.469,49.374 194.394 C 50.085 196.500,51.054 198.037,52.906 200.000 C 53.704 200.845,54.645 202.176,54.997 202.958 C 55.597 204.289,56.201 205.109,59.292 208.793 C 59.963 209.593,61.009 211.287,61.616 212.558 C 62.223 213.829,62.968 215.074,63.271 215.326 C 63.574 215.577,63.823 215.911,63.823 216.068 C 63.823 216.439,65.336 218.752,66.149 219.625 C 66.902 220.432,67.461 221.836,67.780 223.720 C 68.062 225.390,68.851 226.998,70.646 229.559 C 71.398 230.634,72.014 231.756,72.014 232.053 C 72.016 232.971,74.095 236.596,75.250 237.695 C 76.563 238.944,77.018 239.758,77.706 242.092 C 77.992 243.062,78.719 244.548,79.321 245.392 C 80.579 247.156,81.801 249.389,83.243 252.560 C 83.799 253.780,84.718 255.291,85.287 255.919 C 85.856 256.546,86.415 257.352,86.529 257.710 C 86.642 258.069,86.848 258.362,86.986 258.362 C 87.124 258.362,87.524 259.168,87.874 260.154 C 88.224 261.139,88.607 262.022,88.726 262.116 C 88.844 262.210,89.354 263.003,89.859 263.878 C 90.365 264.753,91.601 266.212,92.607 267.120 C 93.902 268.289,94.759 269.469,95.544 271.160 C 96.153 272.474,96.927 273.857,97.263 274.232 C 97.599 274.608,98.384 275.985,99.008 277.292 C 100.325 280.052,103.107 283.120,104.608 283.468 C 105.171 283.599,106.169 284.031,106.826 284.430 C 108.026 285.157,168.679 285.811,173.312 285.146 C 178.155 284.452,179.486 278.583,175.963 273.461 C 175.287 272.479,173.815 269.878,172.691 267.682 C 171.568 265.486,170.289 263.297,169.850 262.817 C 168.953 261.839,167.577 259.009,167.577 258.145 C 167.577 256.919,166.090 253.605,164.754 251.849 C 163.979 250.832,162.387 248.695,161.216 247.099 C 160.045 245.503,158.458 243.504,157.691 242.655 C 156.453 241.286,155.013 238.905,153.439 235.623 C 153.158 235.037,152.228 233.808,151.372 232.893 C 150.516 231.978,149.668 230.691,149.486 230.034 C 149.305 229.377,148.646 227.995,148.022 226.962 C 147.398 225.930,146.379 223.626,145.758 221.843 C 145.136 220.060,144.512 218.447,144.372 218.259 C 144.231 218.072,143.935 217.355,143.714 216.667 C 143.492 215.979,142.732 214.750,142.024 213.937 C 141.271 213.071,140.347 211.395,139.798 209.898 C 138.940 207.558,136.478 203.754,135.822 203.754 C 135.672 203.754,135.293 202.948,134.980 201.962 C 134.069 199.097,133.177 197.343,132.114 196.327 C 131.569 195.807,130.648 194.343,130.067 193.075 C 129.486 191.807,128.177 189.675,127.158 188.337 C 126.138 186.999,125.205 185.505,125.083 185.017 C 124.440 182.444,122.743 179.656,120.506 177.500 C 116.190 173.338,114.726 166.894,116.997 162.049 C 117.410 161.168,117.747 160.334,117.747 160.195 C 117.747 160.057,118.792 158.935,120.069 157.702 C 121.346 156.469,122.634 154.923,122.933 154.266 C 124.766 150.232,125.256 149.103,125.256 148.911 C 125.256 148.793,126.073 147.607,127.073 146.276 C 128.072 144.945,129.288 143.012,129.775 141.980 C 130.262 140.947,131.149 139.565,131.747 138.908 C 133.088 137.435,133.516 136.595,134.317 133.867 C 134.801 132.218,135.280 131.413,136.402 130.362 C 137.985 128.878,138.573 127.801,139.380 124.906 C 139.682 123.824,140.402 122.441,141.067 121.663 C 142.538 119.945,143.623 117.928,143.904 116.388 C 144.025 115.728,144.333 114.885,144.588 114.515 C 144.843 114.144,145.051 113.635,145.051 113.383 C 145.051 112.849,146.713 109.125,147.064 108.874 C 147.521 108.547,149.052 105.624,149.295 104.615 C 149.430 104.056,150.136 103.032,150.864 102.339 C 151.632 101.609,152.902 99.669,153.886 97.724 C 154.820 95.879,156.067 93.831,156.657 93.174 C 157.247 92.517,158.025 91.596,158.385 91.126 C 160.018 88.999,160.953 87.742,161.342 87.155 C 162.541 85.341,163.531 83.856,164.153 82.936 C 164.534 82.373,165.129 81.489,165.475 80.973 C 165.821 80.456,166.293 79.420,166.525 78.669 C 167.468 75.609,168.410 73.480,169.368 72.245 C 169.924 71.527,171.223 69.309,172.254 67.316 C 173.285 65.324,174.651 63.009,175.290 62.173 C 175.928 61.337,176.451 60.506,176.451 60.327 C 176.451 60.147,176.703 59.470,177.011 58.820 C 178.061 56.608,176.491 53.838,173.838 53.222 C 172.176 52.836,109.986 52.880,107.668 53.269 M100.443 59.300 C 100.324 59.629,99.413 60.953,98.419 62.244 C 97.425 63.534,96.433 65.147,96.214 65.827 C 95.872 66.890,94.521 68.850,93.073 70.384 C 92.847 70.623,92.432 71.280,92.151 71.843 C 91.869 72.406,91.544 72.944,91.426 73.038 C 91.309 73.131,90.405 74.744,89.417 76.621 C 88.429 78.498,87.097 80.572,86.457 81.229 C 85.816 81.886,84.578 83.882,83.706 85.666 C 82.834 87.449,81.382 89.928,80.480 91.174 C 78.369 94.090,78.374 94.479,80.489 91.924 C 82.256 89.789,82.663 89.109,84.236 85.666 C 84.793 84.445,86.017 82.610,86.955 81.586 C 87.960 80.489,89.408 78.248,90.482 76.126 C 92.448 72.242,93.256 70.924,94.467 69.623 C 94.895 69.164,95.642 67.940,96.128 66.903 C 96.613 65.866,97.820 63.942,98.810 62.628 C 99.799 61.314,100.712 59.893,100.839 59.471 C 101.109 58.572,100.763 58.423,100.443 59.300 M79.473 109.898 C 79.801 110.367,80.356 111.519,80.706 112.457 C 81.057 113.396,81.652 114.701,82.028 115.358 C 83.498 117.925,84.504 120.026,84.902 121.361 C 85.152 122.198,85.901 123.318,86.772 124.156 C 88.529 125.848,89.006 126.389,90.296 128.157 C 90.845 128.908,91.394 129.599,91.516 129.693 C 91.774 129.890,93.855 134.364,93.861 134.736 C 93.865 134.982,94.878 136.262,97.405 139.217 C 98.137 140.073,98.946 141.236,99.202 141.803 C 99.459 142.369,99.811 143.063,99.985 143.345 C 100.158 143.626,100.850 145.009,101.523 146.416 C 102.769 149.026,103.751 150.846,104.328 151.617 C 104.505 151.854,105.095 153.200,105.640 154.608 C 106.185 156.015,107.137 157.917,107.757 158.834 C 108.377 159.750,108.980 160.902,109.098 161.394 C 109.215 161.885,109.587 162.836,109.922 163.506 C 110.258 164.177,110.643 165.713,110.778 166.919 C 111.018 169.059,111.453 170.113,112.669 171.502 C 112.998 171.877,113.716 173.571,114.265 175.267 C 115.595 179.371,116.639 181.308,118.840 183.749 C 119.159 184.103,119.519 184.843,119.640 185.393 C 119.761 185.944,120.075 186.806,120.337 187.310 C 120.600 187.813,120.816 188.444,120.817 188.712 C 120.818 188.980,122.010 190.362,123.465 191.784 C 124.921 193.205,126.317 194.829,126.567 195.392 C 126.818 195.956,127.623 197.298,128.358 198.375 C 129.092 199.452,129.693 200.422,129.693 200.531 C 129.693 200.639,130.222 201.289,130.869 201.975 C 131.516 202.661,132.137 203.588,132.250 204.034 C 132.362 204.481,132.732 205.254,133.072 205.751 C 134.346 207.614,135.020 208.789,136.621 211.945 C 139.466 217.552,139.668 217.912,140.101 218.166 C 140.979 218.680,141.619 220.144,142.175 222.912 C 142.693 225.493,143.560 227.783,144.404 228.802 C 145.560 230.198,146.352 231.473,147.677 234.073 C 148.507 235.700,149.542 237.415,149.978 237.884 C 150.939 238.920,151.345 239.687,152.079 241.854 C 152.632 243.486,153.538 244.837,155.983 247.674 C 156.761 248.576,157.424 249.859,157.786 251.161 C 158.542 253.879,159.192 254.878,161.385 256.684 C 162.566 257.658,163.641 258.977,164.420 260.410 C 165.084 261.630,165.728 262.705,165.851 262.799 C 165.974 262.892,166.261 263.608,166.488 264.388 C 166.731 265.220,167.381 266.227,168.057 266.821 C 169.217 267.839,169.924 269.088,170.628 271.364 C 171.073 272.803,172.745 275.554,173.958 276.845 L 174.809 277.750 174.120 278.440 C 172.467 280.093,173.713 280.029,141.297 280.124 C 102.002 280.239,102.991 280.350,102.254 275.743 C 101.979 274.022,100.587 271.473,98.911 269.620 C 98.593 269.269,97.858 267.996,97.277 266.790 C 96.695 265.585,95.758 264.082,95.195 263.451 C 94.093 262.217,92.679 259.852,92.302 258.613 C 91.637 256.427,90.310 254.168,88.724 252.522 C 86.164 249.866,85.437 248.820,84.994 247.159 C 84.485 245.245,83.672 243.838,82.100 242.150 C 80.819 240.775,78.840 237.286,78.840 236.404 C 78.840 236.142,77.994 235.048,76.961 233.972 C 75.928 232.897,74.994 231.609,74.885 231.111 C 74.592 229.761,74.085 228.423,72.861 225.768 C 72.256 224.454,71.415 222.611,70.994 221.672 C 70.573 220.734,70.121 219.889,69.991 219.795 C 69.860 219.701,69.560 218.743,69.324 217.665 C 68.988 216.134,68.562 215.351,67.374 214.082 C 66.297 212.931,65.661 211.837,65.192 210.328 C 64.271 207.368,63.301 205.838,61.412 204.371 C 60.369 203.561,59.711 202.751,59.569 202.104 C 59.447 201.550,58.895 200.384,58.343 199.513 C 57.790 198.642,57.338 197.859,57.338 197.774 C 57.338 197.576,56.431 196.478,55.119 195.087 C 54.556 194.489,53.825 193.469,53.494 192.819 C 53.164 192.170,52.590 191.177,52.219 190.614 C 51.491 189.507,50.853 188.169,50.853 187.748 C 50.853 187.603,50.237 186.606,49.484 185.531 C 48.732 184.457,47.646 182.359,47.072 180.869 C 45.938 177.930,44.593 176.288,43.039 175.946 C 41.726 175.658,41.648 175.256,41.643 168.729 C 41.637 161.381,41.646 161.344,44.025 159.728 C 45.957 158.417,46.578 157.535,47.588 154.672 C 47.843 153.949,48.606 152.756,49.283 152.020 C 49.960 151.285,50.608 150.375,50.724 150.000 C 50.839 149.625,51.123 149.087,51.355 148.805 C 51.868 148.182,52.878 146.248,54.119 143.515 C 54.631 142.389,55.938 140.468,57.024 139.245 C 58.110 138.023,59.324 136.257,59.721 135.321 C 60.118 134.384,60.628 133.194,60.853 132.675 C 61.078 132.157,61.525 131.649,61.846 131.547 C 62.765 131.256,64.483 128.863,65.065 127.065 C 65.971 124.261,66.589 123.146,67.957 121.846 C 68.710 121.129,69.371 120.124,69.494 119.509 C 69.613 118.916,69.808 118.430,69.928 118.430 C 70.121 118.430,72.010 114.602,72.707 112.799 C 72.852 112.423,73.435 111.112,74.003 109.885 C 74.571 108.658,75.145 107.199,75.278 106.643 C 75.871 104.172,76.087 104.177,77.529 106.694 C 78.270 107.987,79.144 109.428,79.473 109.898 " stroke="none" fill="#8eb6e5" fill-rule="evenodd"></path></g></svg>